<mxfile host="Electron" agent="Mozilla/5.0 (Windows NT 10.0; Win64; x64) AppleWebKit/537.36 (KHTML, like Gecko) draw.io/26.2.15 Chrome/134.0.6998.205 Electron/35.2.1 Safari/537.36" version="26.2.15">
  <diagram name="Page-1" id="yt0rLH5NeVQduTZas6Uw">
    <mxGraphModel dx="1426" dy="849" grid="1" gridSize="10" guides="1" tooltips="1" connect="1" arrows="1" fold="1" page="1" pageScale="1" pageWidth="850" pageHeight="1100" math="1" shadow="0" adaptiveColors="auto">
      <root>
        <mxCell id="0" />
        <mxCell id="1" parent="0" />
        <mxCell id="SMkQLB6GGTnSdynTrf-K-6" style="rounded=0;orthogonalLoop=1;jettySize=auto;html=1;exitX=0;exitY=1;exitDx=0;exitDy=0;endArrow=none;startFill=0;strokeWidth=2;strokeColor=light-dark(#059669,#1F5A4A);fontColor=light-dark(#064E3B,#CDEEDD);" edge="1" parent="1" source="SMkQLB6GGTnSdynTrf-K-1" target="SMkQLB6GGTnSdynTrf-K-2">
          <mxGeometry relative="1" as="geometry" />
        </mxCell>
        <mxCell id="SMkQLB6GGTnSdynTrf-K-9" style="rounded=0;orthogonalLoop=1;jettySize=auto;html=1;exitX=1;exitY=1;exitDx=0;exitDy=0;endArrow=none;startFill=0;strokeWidth=2;strokeColor=light-dark(#059669,#1F5A4A);fontColor=light-dark(#064E3B,#CDEEDD);" edge="1" parent="1" source="SMkQLB6GGTnSdynTrf-K-1" target="SMkQLB6GGTnSdynTrf-K-5">
          <mxGeometry relative="1" as="geometry" />
        </mxCell>
        <mxCell id="SMkQLB6GGTnSdynTrf-K-1" value="$$\times$$" style="ellipse;whiteSpace=wrap;html=1;aspect=fixed;strokeWidth=2;fontSize=37;fillColor=light-dark(#10B981,#154236);strokeColor=light-dark(#059669,#1F5A4A);fontColor=light-dark(#064E3B,#CDEEDD);" vertex="1" parent="1">
          <mxGeometry x="360" y="400" width="80" height="80" as="geometry" />
        </mxCell>
        <mxCell id="SMkQLB6GGTnSdynTrf-K-7" style="rounded=0;orthogonalLoop=1;jettySize=auto;html=1;exitX=0;exitY=1;exitDx=0;exitDy=0;endArrow=none;startFill=0;strokeWidth=2;strokeColor=light-dark(#059669,#1F5A4A);fontColor=light-dark(#064E3B,#CDEEDD);" edge="1" parent="1" source="SMkQLB6GGTnSdynTrf-K-2" target="SMkQLB6GGTnSdynTrf-K-3">
          <mxGeometry relative="1" as="geometry" />
        </mxCell>
        <mxCell id="SMkQLB6GGTnSdynTrf-K-8" style="rounded=0;orthogonalLoop=1;jettySize=auto;html=1;exitX=1;exitY=1;exitDx=0;exitDy=0;endArrow=none;startFill=0;strokeWidth=2;strokeColor=light-dark(#059669,#1F5A4A);fontColor=light-dark(#064E3B,#CDEEDD);" edge="1" parent="1" source="SMkQLB6GGTnSdynTrf-K-2" target="SMkQLB6GGTnSdynTrf-K-4">
          <mxGeometry relative="1" as="geometry" />
        </mxCell>
        <mxCell id="SMkQLB6GGTnSdynTrf-K-2" value="$$+$$" style="ellipse;whiteSpace=wrap;html=1;aspect=fixed;strokeWidth=2;fontSize=37;fillColor=light-dark(#10B981,#154236);strokeColor=light-dark(#059669,#1F5A4A);fontColor=light-dark(#064E3B,#CDEEDD);" vertex="1" parent="1">
          <mxGeometry x="240" y="560" width="80" height="80" as="geometry" />
        </mxCell>
        <mxCell id="SMkQLB6GGTnSdynTrf-K-3" value="$$3$$" style="whiteSpace=wrap;html=1;aspect=fixed;strokeWidth=2;fontSize=39;strokeColor=light-dark(#059669,#1F5A4A);fillColor=light-dark(#ECFDF5,#0C2C21);fontColor=light-dark(#064E3B,#CDEEDD);" vertex="1" parent="1">
          <mxGeometry x="160" y="720" width="80" height="80" as="geometry" />
        </mxCell>
        <mxCell id="SMkQLB6GGTnSdynTrf-K-4" value="$$5$$" style="whiteSpace=wrap;html=1;aspect=fixed;strokeWidth=2;fontSize=39;strokeColor=light-dark(#059669,#1F5A4A);fillColor=light-dark(#ECFDF5,#0C2C21);fontColor=light-dark(#064E3B,#CDEEDD);" vertex="1" parent="1">
          <mxGeometry x="320" y="720" width="80" height="80" as="geometry" />
        </mxCell>
        <mxCell id="SMkQLB6GGTnSdynTrf-K-5" value="$$5$$" style="whiteSpace=wrap;html=1;aspect=fixed;strokeWidth=2;fontSize=39;strokeColor=light-dark(#059669,#1F5A4A);fillColor=light-dark(#ECFDF5,#0C2C21);fontColor=light-dark(#064E3B,#CDEEDD);" vertex="1" parent="1">
          <mxGeometry x="480" y="560" width="80" height="80" as="geometry" />
        </mxCell>
      </root>
    </mxGraphModel>
  </diagram>
</mxfile>
